<?xml version="1.0" standalone="no"?><!DOCTYPE svg PUBLIC "-//W3C//DTD SVG 1.1//EN" "http://www.w3.org/Graphics/SVG/1.1/DTD/svg11.dtd"><svg t="1761843536109" class="icon" viewBox="0 0 1024 1024" version="1.1" xmlns="http://www.w3.org/2000/svg" p-id="24780" xmlns:xlink="http://www.w3.org/1999/xlink" width="200" height="200"><path d="M490.684916 128.766467C256.165269 128.766467 64.383234 294.253424 64.383234 501.255309 64.383234 618.847138 126.868113 726.789996 230.678884 796.603148 227.606262 794.536798 225.494778 791.221546 224.753999 787.916563 223.887537 789.20001 221.953407 794.285728 218.857033 800.489202 217.065752 804.077968 214.951892 807.923142 212.584292 811.932716 209.515541 817.129698 206.194743 822.315034 202.873358 827.208904 200.894915 830.124028 199.385181 832.253605 198.588038 833.340433 172.393538 873.318105 195.912543 907.544203 237.91885 892.485001 238.904007 892.122217 240.468491 891.547651 242.667337 890.744965 246.342793 889.403243 250.469427 887.907196 254.950478 886.295611 267.750292 881.692231 280.813441 877.089544 293.359528 872.799705 295.896051 871.932402 298.389767 871.085409 300.83653 870.260372 316.56621 864.95641 329.922562 860.704189 340.069379 857.823956 345.53275 856.273145 349.931698 855.160281 353.049854 854.536414 354.354436 854.275399 355.312446 854.125582 355.799045 854.082547 354.825653 854.168634 353.666503 854.131904 351.271205 853.409411 395.73304 866.820431 442.681213 873.74415 490.684916 873.74415 515.054363 873.74415 539.17115 871.960251 562.858125 868.437706L553.743714 867.654409C587.27542 878.684203 622.974605 884.399727 659.544225 884.399727 693.181558 884.399727 726.090816 879.564534 757.271021 870.194777 754.092157 871.150037 753.608504 871.121242 752.940486 871.002866 754.491872 871.27778 756.826954 871.827951 759.766796 872.623229 765.488513 874.171055 773.068547 876.523039 781.988654 879.487401 783.660815 880.043099 785.371243 880.617405 787.11584 881.208674 794.321124 883.650652 801.796248 886.274135 809.096177 888.898315 813.473523 890.471885 816.808901 891.692041 818.665128 892.380197 860.663463 907.254143 884.367548 873.21324 859.473647 834.095155L858.061678 832.115726C856.808278 830.543061 854.629739 827.525856 852.506478 824.032117 851.198804 821.880393 850.132845 819.882986 849.402965 818.211045 848.88826 821.966376 846.566215 827.362287 841.990053 830.428279 915.30587 781.307253 959.616766 705.045911 959.616766 621.731227 959.616766 570.619613 942.964529 521.756096 912.303541 479.904834L916.899107 493.627052C912.222016 289.888257 721.984814 128.766467 490.684916 128.766467ZM874.458588 502.459496 878.87761 508.491319C903.736413 542.422786 916.986598 581.303485 916.986598 621.731227 916.986598 688.106955 880.94872 750.130005 819.523603 791.284355 802.737889 802.530654 803.163281 820.259893 810.846353 837.859545 812.511881 841.674778 814.544511 845.483541 816.871626 849.312716 820.163834 854.729912 823.400763 859.212948 825.757675 862.170212L824.345705 860.190783C826.245123 863.175514 827.218499 865.31948 827.393889 866.111397 826.869427 863.743344 827.310775 859.845407 830.096989 855.844186 832.870293 851.861508 836.179448 850.333555 838.39741 850.215736 837.62165 850.256945 835.424001 849.847008 832.221342 848.712945 830.525993 848.082102 827.066992 846.816721 822.554587 845.194601 815.038264 842.49263 807.337514 839.789961 799.875177 837.260865 798.056786 836.644585 796.271017 836.044983 794.521489 835.463574 765.181772 825.713294 755.193882 823.011393 745.847847 825.819909 718.393861 834.069924 689.327665 838.340475 659.544225 838.340475 627.172439 838.340475 595.657587 833.294873 566.15969 823.591944L561.682084 822.119097 557.04528 822.808647C535.285067 826.044658 513.110434 827.684899 490.684916 827.684899 446.549157 827.684899 403.457662 821.329946 362.734113 809.046503 351.832032 805.75811 334.145392 810.778566 288.136195 826.292617 285.63427 827.136253 283.086605 828.00157 280.497094 828.886993 267.729439 833.252591 254.472422 837.923585 241.486537 842.593885 236.942593 844.228089 232.755682 845.745988 229.021658 847.10909 226.774814 847.929298 225.182894 848.513942 224.313674 848.834848 221.208111 849.947226 218.947329 850.386584 218.14354 850.352286 220.466916 850.451427 223.929592 852.017301 226.819244 856.222474 229.71253 860.432937 230.098527 864.480442 229.508371 866.930327 229.704432 866.116427 230.732379 863.943258 232.699225 860.936989 233.109594 860.433149 234.938024 857.854032 237.251504 854.44525 241.083328 848.799278 244.915738 842.815075 248.523314 836.705579 251.420355 831.799389 254.057357 827.002606 256.378759 822.35176 270.621662 793.816617 274.586859 771.878658 253.20607 757.499993 161.261461 695.666882 107.013402 601.95316 107.013402 501.255309 107.013402 322.255203 277.868719 174.825719 490.684916 174.825719 700.625512 174.825719 870.235026 318.476846 874.282045 494.769102L874.458588 502.459496ZM874.35643 501.255309 916.986598 501.255309C916.986598 498.709729 916.957412 496.166888 916.899107 493.627052L874.282045 494.769102C874.331614 496.92835 874.35643 499.090478 874.35643 501.255309ZM557.04528 822.808647 559.951702 845.623176 566.15969 823.591944C467.508194 791.141889 402.101853 710.883591 402.101853 621.731227 402.101853 503.406271 516.430046 405.12198 659.544225 405.12198 750.184557 405.12198 832.352401 444.985902 878.87761 508.491319L912.303541 479.904834C857.398565 404.961306 762.792042 359.062727 659.544225 359.062727 494.751422 359.062727 359.471685 475.358392 359.471685 621.731227 359.471685 732.90272 438.355709 829.699108 553.743714 867.654409L558.221321 869.127256 562.858125 868.437706C564.566072 868.183713 566.271624 867.920704 567.974711 867.648699L561.740762 822.084577C560.177951 822.334178 558.612768 822.575542 557.04528 822.808647Z" fill="#CB7DA3" p-id="24781"></path><path d="M512 624.342202a31.2857 31.2857 0 1 0 63.945223 0 31.2857 31.2857 0 1 0-63.945223 0Z" fill="#CB7DA3" p-id="24782"></path><path d="M639.890549 624.342202a31.2857 31.2857 0 1 0 63.945223 0 31.2857 31.2857 0 1 0-63.945223 0Z" fill="#CB7DA3" p-id="24783"></path><path d="M767.780995 624.342202a31.2857 31.2857 0 1 0 63.945223 0 31.2857 31.2857 0 1 0-63.945223 0Z" fill="#CB7DA3" p-id="24784"></path></svg>