<?xml version="1.0" standalone="no"?><!DOCTYPE svg PUBLIC "-//W3C//DTD SVG 1.1//EN" "http://www.w3.org/Graphics/SVG/1.1/DTD/svg11.dtd"><svg t="1761843587064" class="icon" viewBox="0 0 1024 1024" version="1.1" xmlns="http://www.w3.org/2000/svg" p-id="25919" xmlns:xlink="http://www.w3.org/1999/xlink" width="200" height="200"><path d="M444.57 41.64C205.31 70.68 19.79 273.99 11.14 514.84c-3.6 99.95 21.96 195.97 73.78 279.31 9.17 14.75 26.63 20.98 42.44 16.95 3.83-0.02 7.71-0.69 11.52-2.08l195.67-71.34c8.47-3.09 17.74 1.96 19.73 10.76l13.83 60.99c2.66 11.72 14.53 18.88 26.13 15.76l170.4-45.76c18.26-4.9 29.1-23.69 24.2-41.95-4.9-18.27-23.69-29.11-41.96-24.2l-108.26 29.07c-7.96 2.14-16.1-2.77-17.92-10.81l-12.72-56.15c-4.15-18.32-23.44-28.83-41.08-22.4l-226.81 82.69c-34.2-61.61-52.07-130.6-52.07-202.35 0-246.87 215.01-444.47 467.58-415.38C751.45 140.51 907.65 302.45 923.12 499c11.75 149.36-53.68 288.21-171.85 373.37-16.19 11.66-20.6 33.82-10.3 50.9 11.62 19.26 37.35 24.76 55.6 11.61 129.17-93.08 205.11-240.33 205.11-401.55 0-293.48-256.5-528.18-557.11-491.69z" fill="#CB7DA3" p-id="25920"></path><path d="M515.21 382.68m-34.25 0a34.25 34.25 0 1 0 68.5 0 34.25 34.25 0 1 0-68.5 0Z" fill="#CB7DA3" p-id="25921"></path><path d="M373.21 360.87c0 12.77 0 51.62 75.75 207.24 12.45 25.57 37.84 41.46 66.24 41.46 28.41 0 53.79-15.89 66.24-41.47 75.75-155.67 75.75-194.48 75.75-207.23 0-78.3-63.7-142-142-142-78.28 0.01-141.98 63.71-141.98 142z m215.5 0c0 5.98-3.32 42.6-68.84 177.25-0.39 0.81-1.44 2.95-4.66 2.95s-4.27-2.14-4.66-2.95c-65.52-134.61-68.84-171.26-68.84-177.25 0-40.53 32.98-73.5 73.5-73.5 40.53 0 73.5 32.98 73.5 73.5z" fill="#CB7DA3" p-id="25922"></path></svg>