<?xml version="1.0" standalone="no"?><!DOCTYPE svg PUBLIC "-//W3C//DTD SVG 1.1//EN" "http://www.w3.org/Graphics/SVG/1.1/DTD/svg11.dtd"><svg t="1761843126923" class="icon" viewBox="0 0 1035 1024" version="1.1" xmlns="http://www.w3.org/2000/svg" p-id="9895" id="mx_n_1761843126924" xmlns:xlink="http://www.w3.org/1999/xlink" width="202.1484375" height="200"><path d="M903.4794 448.363829l-1.100761 0c-41.736493-0.49139-77.892551-24.567048-95.430538-59.611398-17.651104 35.483438-54.321662 59.611398-96.601846 59.611398-42.266804 0-78.919118-24.112148-96.58725-59.589505-7.383007 14.787908-18.194795 27.858385-31.862481 38.083911-37.490351 28.128406-91.814446 28.158814-129.360748 0-13.668902-10.241338-24.495286-23.321546-31.878293-38.125266-7.384224 14.802504-18.210607 27.883928-31.894105 38.125266-37.532922 28.141786-91.827825 28.141786-129.359532 0-13.668902-10.241338-24.496502-23.321546-31.877077-38.125266-7.384224 14.802504-18.211823 27.883928-31.895321 38.125266-18.400352 13.785668-40.34625 21.211246-63.448859 21.476402-0.087574 0-0.176365 0-0.248127 0-15.604053 0-29.579465-2.810895-42.74968-8.336595-8.145634-3.433646-15.850964-7.852503-22.912865-13.139807-27.410783-20.531328-43.129169-51.891473-43.129169-86.03332L23.142748 169.090328 25.542529 169.090328c2.477625-13.976629 6.841749-27.491059 13.037637-40.295164 7.429227-15.353493 17.288643-29.314309 29.287551-41.510259 29.562437-30.033149 69.014698-46.579843 111.090542-46.579843L855.467959 40.705061c42.092872 0 81.5427 16.546694 111.095407 46.585925 11.995258 12.189868 21.854675 26.159199 29.283902 41.511475 6.195888 12.818701 10.562444 26.334348 13.038853 40.287867l1.508226 0 0.892772 11.250876 0 160.483712c0 43.410137-25.913504 82.333302-66.04325 99.167046C932.001891 445.552934 917.951067 448.363829 903.4794 448.363829zM796.048738 333.932081l21.509242 0 0.701811 10.74854c2.023941 44.99499 39.011956 80.646279 84.250208 81.153481l0.970616 11.277635 0-11.248443c11.467379 0 22.58811-2.227065 33.065412-6.622813 31.732336-13.317388 52.242987-44.09492 52.242987-78.415565L988.789015 185.703919l-0.819794-4.12451c-1.659048-14.96549-5.834643-29.424994-12.384478-42.984428-6.343061-13.132509-14.78061-25.080331-25.064519-35.518711-25.284671-25.71038-59.039732-39.869456-95.049833-39.869456L178.958258 63.206813c-35.995505 0-69.74935 14.160292-95.064429 39.869456-10.270529 10.43838-18.708078 22.386202-25.065735 35.518711-6.534022 13.522945-10.695022 27.989747-12.365017 42.984428l-0.819794 7.463284 0 151.782223c0 26.985074 12.436779 51.783221 34.118738 68.030702 5.597463 4.181677 11.692397 7.683436 18.136412 10.390944 10.462707 4.389666 21.581005 6.616731 33.052033 6.616731 19.265149-0.233532 36.638934-6.108313 51.200608-17.007676 20.48146-15.348627 32.890264-38.735854 34.019-64.168915l0.46828-10.754621 21.522622 0 0.703028 10.74854c1.142116 25.439143 13.55092 48.826369 34.031163 64.174997 29.710827 22.252408 72.649035 22.252408 102.39027 0 20.479027-15.348627 32.889047-38.735854 34.016567-64.168915l0.467063-10.754621 21.522622 0 0.703028 10.74854c1.143332 25.439143 13.549704 48.826369 34.031163 64.174997 29.725423 22.260922 72.70985 22.243894 102.374457 0 20.497272-15.348627 32.907292-38.735854 34.03238-64.168915l0.469496-10.754621 21.522622 0 0.700595 10.74854c2.051917 45.525301 39.481452 81.182672 85.219608 81.182672 45.752752 0 83.18472-35.657371 85.220825-81.182672L796.048738 333.932081z" fill="#ffffff" p-id="9896"></path><path d="M340.181487 820.686332c-61.192602 0-110.973776-49.682652-110.973776-110.752407 0-35.107598 16.966321-68.495333 45.37083-89.316143 24.027006-17.613398 53.78162-24.956267 84.1079-19.872088 16.934697 2.843735 33.21137 9.712243 47.099208 19.872088 28.406942 20.819594 45.369614 54.207329 45.369614 89.316143 0 54.279091-38.893974 100.206991-92.468821 109.185799C352.502717 820.163318 346.277637 820.686332 340.181487 820.686332zM340.181487 621.688135c-18.972018 0-37.050047 5.90519-52.300153 17.081871-22.650142 16.595346-36.17187 43.196066-36.17187 71.165136 0 53.494571 48.433501 96.089779 103.25385 87.008802 42.704676-7.173802 73.688981-43.761651 73.688981-87.008802 0-27.96907-13.520512-54.569789-36.170654-71.165136-11.061132-8.0909-24.02579-13.571597-37.518327-15.827854C350.011712 622.107762 345.032135 621.688135 340.181487 621.688135z" fill="#ffffff" p-id="9897"></path><path d="M783.142463 994.014287 251.300783 994.014287c-37.810241 0-74.686356-11.207089-103.8243-31.570566-5.685037-3.970039-11.091539-8.307404-16.071116-12.8783-1.684591-1.521605-3.370398-3.150245-5.011201-4.803212l-1.624991-1.671211c-1.333077-1.364701-2.608987-2.741565-3.852057-4.146404-4.379936-4.894435-8.36457-10.06254-11.895521-15.35106-0.806414-1.17374-1.656615-2.491005-2.461813-3.797323-2.97388-4.789832-5.670442-9.844821-8.013056-15.043333-4.440751-9.803466-7.559372-19.983988-9.302346-30.283709-4.614684-15.368088-6.959731-31.335818-6.959731-47.465317L82.28465 512.384354c0-6.210484 5.039176-11.248443 11.24966-11.248443 6.212916 0 11.253309 5.03796 11.253309 11.248443l0 314.61828c0 14.151778 2.079892 28.157598 6.194672 41.62216l0.338134 1.466871c1.407272 8.611481 4.000447 17.153633 7.719925 25.385625 1.935151 4.264386 4.133025 8.426602 6.622813 12.437995 0.628833 0.998591 1.303885 2.053133 2.006913 3.090646 3.017667 4.528326 6.372253 8.849878 10.019969 12.952495 1.02535 1.143332 2.079892 2.284232 3.164841 3.412968l0.805198 0.82101c1.583637 1.610396 3.209845 3.209845 4.893219 4.746045 4.308173 3.938415 8.937453 7.646947 13.814859 11.046536 25.39049 17.756923 57.69206 27.531198 90.933837 27.531198l369.927587 0L621.229586 656.959935l158.588699 0 0 314.555032 3.325394 0c70.336828 0 130.51746-43.632722 139.979142-101.484118l0.339351-1.464438c4.102617-13.449966 6.182508-27.425379 6.182508-41.564993L929.64468 512.384354c0-6.210484 5.03796-11.248443 11.250876-11.248443 6.209267 0 11.248443 5.03796 11.248443 11.248443l0 314.61828c0 16.10274-2.329235 32.055874-6.941486 47.410583C933.596475 942.650693 864.084306 994.014287 783.142463 994.014287zM643.732554 971.514968l113.581546 0L757.3141 679.46412 643.732554 679.46412 643.732554 971.514968z" fill="#ffffff" p-id="9898"></path></svg>