<?xml version="1.0" standalone="no"?><!DOCTYPE svg PUBLIC "-//W3C//DTD SVG 1.1//EN" "http://www.w3.org/Graphics/SVG/1.1/DTD/svg11.dtd"><svg t="1761843479113" class="icon" viewBox="0 0 1024 1024" version="1.1" xmlns="http://www.w3.org/2000/svg" p-id="23659" xmlns:xlink="http://www.w3.org/1999/xlink" width="200" height="200"><path d="M988.234962 1024H35.765038C16.076204 1024 0 1007.923796 0 988.234962c0-19.869466 16.076204-35.765038 35.765038-35.765038H988.054331c19.869466 0 35.765038 16.076204 35.765037 35.765038 0.180632 19.688834-15.895572 35.765038-35.584406 35.765038zM512.090316 72.252602c95.734697 0 185.869818 37.390721 253.606632 105.127536S870.643853 335.071441 870.643853 430.98677 833.433763 616.856588 765.696948 684.593403s-157.871935 105.127536-253.606632 105.127535-185.869818-37.390721-253.606633-105.127535-105.127536-157.871935-105.127536-253.606633S190.566237 245.116952 258.303052 177.380138 416.174987 72.252602 512.090316 72.252602m0-72.252602C274.017993 0 81.103546 192.914447 81.103546 430.98677s192.914447 430.98677 430.98677 430.98677S942.896454 668.878462 942.896454 430.98677 749.982007 0 512.090316 0z" fill="#2c2c2c" p-id="23660"></path></svg>